<mxfile host="drawio-plugin" modified="2021-11-15T01:47:51.266Z" agent="5.0 (Windows NT 6.2; Win64; x64) AppleWebKit/537.36 (KHTML, like Gecko) Chrome/87.0.4280.141 Safari/537.36" etag="Wc4bD9kbbTyLm3dlSU5L" version="14.7.4" type="embed"><diagram id="GMEx37CKDICYmWVqOuIZ" name="Page-1"><mxGraphModel dx="2072" dy="1500" grid="1" gridSize="10" guides="1" tooltips="1" connect="1" arrows="1" fold="1" page="1" pageScale="1" pageWidth="850" pageHeight="1100" math="0" shadow="0"><root><mxCell id="0"/><mxCell id="1" parent="0"/><mxCell id="u4F1EandDgzio56QneHj-1" value="ParkingSystem" style="swimlane;fontStyle=1;align=center;verticalAlign=top;childLayout=stackLayout;horizontal=1;startSize=26;horizontalStack=0;resizeParent=1;resizeParentMax=0;resizeLast=0;collapsible=1;marginBottom=0;" parent="1" vertex="1"><mxGeometry x="10" y="-26" width="260" height="242" as="geometry"/></mxCell><mxCell id="u4F1EandDgzio56QneHj-2" value="+ STAR_TIME: Hour" style="text;strokeColor=none;fillColor=none;align=left;verticalAlign=top;spacingLeft=4;spacingRight=4;overflow=hidden;rotatable=0;points=[[0,0.5],[1,0.5]];portConstraint=eastwest;fontStyle=2" parent="u4F1EandDgzio56QneHj-1" vertex="1"><mxGeometry y="26" width="260" height="26" as="geometry"/></mxCell><mxCell id="u4F1EandDgzio56QneHj-5" value="+ END_TIME: Hour" style="text;strokeColor=none;fillColor=none;align=left;verticalAlign=top;spacingLeft=4;spacingRight=4;overflow=hidden;rotatable=0;points=[[0,0.5],[1,0.5]];portConstraint=eastwest;fontStyle=2" parent="u4F1EandDgzio56QneHj-1" vertex="1"><mxGeometry y="52" width="260" height="26" as="geometry"/></mxCell><mxCell id="u4F1EandDgzio56QneHj-6" value="+ PRICE_PER_HOUR: Float" style="text;strokeColor=none;fillColor=none;align=left;verticalAlign=top;spacingLeft=4;spacingRight=4;overflow=hidden;rotatable=0;points=[[0,0.5],[1,0.5]];portConstraint=eastwest;fontStyle=2" parent="u4F1EandDgzio56QneHj-1" vertex="1"><mxGeometry y="78" width="260" height="26" as="geometry"/></mxCell><mxCell id="B9xKihhxTxYCXN0yQaSQ-7" value="- instance: ParkingSystem" style="text;strokeColor=none;fillColor=none;align=left;verticalAlign=top;spacingLeft=4;spacingRight=4;overflow=hidden;rotatable=0;points=[[0,0.5],[1,0.5]];portConstraint=eastwest;fontStyle=0" parent="u4F1EandDgzio56QneHj-1" vertex="1"><mxGeometry y="104" width="260" height="26" as="geometry"/></mxCell><mxCell id="u4F1EandDgzio56QneHj-3" value="" style="line;strokeWidth=1;fillColor=none;align=left;verticalAlign=middle;spacingTop=-1;spacingLeft=3;spacingRight=3;rotatable=0;labelPosition=right;points=[];portConstraint=eastwest;" parent="u4F1EandDgzio56QneHj-1" vertex="1"><mxGeometry y="130" width="260" height="8" as="geometry"/></mxCell><mxCell id="u4F1EandDgzio56QneHj-4" value="- new(List&lt;ParkingArea&gt;,List&lt;Violation&gt;)" style="text;strokeColor=none;fillColor=none;align=left;verticalAlign=top;spacingLeft=4;spacingRight=4;overflow=hidden;rotatable=0;points=[[0,0.5],[1,0.5]];portConstraint=eastwest;fontStyle=5" parent="u4F1EandDgzio56QneHj-1" vertex="1"><mxGeometry y="138" width="260" height="26" as="geometry"/></mxCell><mxCell id="B9xKihhxTxYCXN0yQaSQ-8" value="+ getInstance(): ParkingSystem" style="text;strokeColor=none;fillColor=none;align=left;verticalAlign=top;spacingLeft=4;spacingRight=4;overflow=hidden;rotatable=0;points=[[0,0.5],[1,0.5]];portConstraint=eastwest;fontStyle=2" parent="u4F1EandDgzio56QneHj-1" vertex="1"><mxGeometry y="164" width="260" height="26" as="geometry"/></mxCell><mxCell id="B9xKihhxTxYCXN0yQaSQ-59" value="+ addViolation(patent: String): void" style="text;strokeColor=none;fillColor=none;align=left;verticalAlign=top;spacingLeft=4;spacingRight=4;overflow=hidden;rotatable=0;points=[[0,0.5],[1,0.5]];portConstraint=eastwest;fontStyle=0" parent="u4F1EandDgzio56QneHj-1" vertex="1"><mxGeometry y="190" width="260" height="26" as="geometry"/></mxCell><mxCell id="B9xKihhxTxYCXN0yQaSQ-60" value="+ finalizeAllCurrentParking(): void" style="text;strokeColor=none;fillColor=none;align=left;verticalAlign=top;spacingLeft=4;spacingRight=4;overflow=hidden;rotatable=0;points=[[0,0.5],[1,0.5]];portConstraint=eastwest;fontStyle=0" parent="u4F1EandDgzio56QneHj-1" vertex="1"><mxGeometry y="216" width="260" height="26" as="geometry"/></mxCell><mxCell id="u4F1EandDgzio56QneHj-8" value="ParkingArea" style="swimlane;fontStyle=1;align=center;verticalAlign=top;childLayout=stackLayout;horizontal=1;startSize=26;horizontalStack=0;resizeParent=1;resizeParentMax=0;resizeLast=0;collapsible=1;marginBottom=0;" parent="1" vertex="1"><mxGeometry x="402.5" y="26" width="325" height="138" as="geometry"/></mxCell><mxCell id="u4F1EandDgzio56QneHj-9" value="- algo :void" style="text;strokeColor=none;fillColor=none;align=left;verticalAlign=top;spacingLeft=4;spacingRight=4;overflow=hidden;rotatable=0;points=[[0,0.5],[1,0.5]];portConstraint=eastwest;" parent="u4F1EandDgzio56QneHj-8" vertex="1"><mxGeometry y="26" width="325" height="26" as="geometry"/></mxCell><mxCell id="u4F1EandDgzio56QneHj-10" value="" style="line;strokeWidth=1;fillColor=none;align=left;verticalAlign=middle;spacingTop=-1;spacingLeft=3;spacingRight=3;rotatable=0;labelPosition=right;points=[];portConstraint=eastwest;" parent="u4F1EandDgzio56QneHj-8" vertex="1"><mxGeometry y="52" width="325" height="8" as="geometry"/></mxCell><mxCell id="u4F1EandDgzio56QneHj-41" value="+ new(List&lt;Parking&gt;, List&lt;PointOfSale&gt;, Inspector)" style="text;strokeColor=none;fillColor=none;align=left;verticalAlign=top;spacingLeft=4;spacingRight=4;overflow=hidden;rotatable=0;points=[[0,0.5],[1,0.5]];portConstraint=eastwest;fontStyle=5" parent="u4F1EandDgzio56QneHj-8" vertex="1"><mxGeometry y="60" width="325" height="26" as="geometry"/></mxCell><mxCell id="u4F1EandDgzio56QneHj-11" value="+ createParking(patent: String): Parking    " style="text;strokeColor=none;fillColor=none;align=left;verticalAlign=top;spacingLeft=4;spacingRight=4;overflow=hidden;rotatable=0;points=[[0,0.5],[1,0.5]];portConstraint=eastwest;" parent="u4F1EandDgzio56QneHj-8" vertex="1"><mxGeometry y="86" width="325" height="26" as="geometry"/></mxCell><mxCell id="u4F1EandDgzio56QneHj-13" value="+ removeParking(parking: Parking): void" style="text;strokeColor=none;fillColor=none;align=left;verticalAlign=top;spacingLeft=4;spacingRight=4;overflow=hidden;rotatable=0;points=[[0,0.5],[1,0.5]];portConstraint=eastwest;" parent="u4F1EandDgzio56QneHj-8" vertex="1"><mxGeometry y="112" width="325" height="26" as="geometry"/></mxCell><mxCell id="u4F1EandDgzio56QneHj-15" value="parkingAreas" style="endArrow=block;endFill=1;html=1;edgeStyle=orthogonalEdgeStyle;align=left;verticalAlign=top;" parent="1" source="u4F1EandDgzio56QneHj-1" target="u4F1EandDgzio56QneHj-8" edge="1"><mxGeometry x="-1" relative="1" as="geometry"><mxPoint x="230" y="220" as="sourcePoint"/><mxPoint x="390" y="220" as="targetPoint"/></mxGeometry></mxCell><mxCell id="u4F1EandDgzio56QneHj-16" value="1" style="edgeLabel;resizable=0;html=1;align=left;verticalAlign=bottom;" parent="u4F1EandDgzio56QneHj-15" connectable="0" vertex="1"><mxGeometry x="-1" relative="1" as="geometry"/></mxCell><mxCell id="u4F1EandDgzio56QneHj-17" value="*" style="text;html=1;strokeColor=none;fillColor=none;align=center;verticalAlign=middle;whiteSpace=wrap;rounded=0;" parent="1" vertex="1"><mxGeometry x="371" y="86" width="40" height="20" as="geometry"/></mxCell><mxCell id="u4F1EandDgzio56QneHj-19" value="Parking" style="swimlane;fontStyle=1;align=center;verticalAlign=top;childLayout=stackLayout;horizontal=1;startSize=26;horizontalStack=0;resizeParent=1;resizeParentMax=0;resizeLast=0;collapsible=1;marginBottom=0;" parent="1" vertex="1"><mxGeometry x="870" y="39" width="230" height="164" as="geometry"/></mxCell><mxCell id="u4F1EandDgzio56QneHj-20" value="- carPatent: String" style="text;strokeColor=none;fillColor=none;align=left;verticalAlign=top;spacingLeft=4;spacingRight=4;overflow=hidden;rotatable=0;points=[[0,0.5],[1,0.5]];portConstraint=eastwest;" parent="u4F1EandDgzio56QneHj-19" vertex="1"><mxGeometry y="26" width="230" height="26" as="geometry"/></mxCell><mxCell id="B9xKihhxTxYCXN0yQaSQ-6" value="- parkingStrategy: ParkingStrategy" style="text;strokeColor=none;fillColor=none;align=left;verticalAlign=top;spacingLeft=4;spacingRight=4;overflow=hidden;rotatable=0;points=[[0,0.5],[1,0.5]];portConstraint=eastwest;" parent="u4F1EandDgzio56QneHj-19" vertex="1"><mxGeometry y="52" width="230" height="26" as="geometry"/></mxCell><mxCell id="C_Dn3geYtqyEeUsSy_d3-1" value="- creationDateTime: LocalDateTime" style="text;strokeColor=none;fillColor=none;align=left;verticalAlign=top;spacingLeft=4;spacingRight=4;overflow=hidden;rotatable=0;points=[[0,0.5],[1,0.5]];portConstraint=eastwest;" parent="u4F1EandDgzio56QneHj-19" vertex="1"><mxGeometry y="78" width="230" height="26" as="geometry"/></mxCell><mxCell id="u4F1EandDgzio56QneHj-21" value="" style="line;strokeWidth=1;fillColor=none;align=left;verticalAlign=middle;spacingTop=-1;spacingLeft=3;spacingRight=3;rotatable=0;labelPosition=right;points=[];portConstraint=eastwest;" parent="u4F1EandDgzio56QneHj-19" vertex="1"><mxGeometry y="104" width="230" height="8" as="geometry"/></mxCell><mxCell id="u4F1EandDgzio56QneHj-22" value="+ pay(): type&#10;" style="text;strokeColor=none;fillColor=none;align=left;verticalAlign=top;spacingLeft=4;spacingRight=4;overflow=hidden;rotatable=0;points=[[0,0.5],[1,0.5]];portConstraint=eastwest;" parent="u4F1EandDgzio56QneHj-19" vertex="1"><mxGeometry y="112" width="230" height="26" as="geometry"/></mxCell><mxCell id="B9xKihhxTxYCXN0yQaSQ-45" value="+ inForce(): bool&#10;" style="text;strokeColor=none;fillColor=none;align=left;verticalAlign=top;spacingLeft=4;spacingRight=4;overflow=hidden;rotatable=0;points=[[0,0.5],[1,0.5]];portConstraint=eastwest;" parent="u4F1EandDgzio56QneHj-19" vertex="1"><mxGeometry y="138" width="230" height="26" as="geometry"/></mxCell><mxCell id="u4F1EandDgzio56QneHj-23" value="PointOfSale" style="swimlane;fontStyle=1;align=center;verticalAlign=top;childLayout=stackLayout;horizontal=1;startSize=26;horizontalStack=0;resizeParent=1;resizeParentMax=0;resizeLast=0;collapsible=1;marginBottom=0;" parent="1" vertex="1"><mxGeometry x="450" y="260" width="230" height="112" as="geometry"/></mxCell><mxCell id="u4F1EandDgzio56QneHj-24" value="+ field: type" style="text;strokeColor=none;fillColor=none;align=left;verticalAlign=top;spacingLeft=4;spacingRight=4;overflow=hidden;rotatable=0;points=[[0,0.5],[1,0.5]];portConstraint=eastwest;" parent="u4F1EandDgzio56QneHj-23" vertex="1"><mxGeometry y="26" width="230" height="26" as="geometry"/></mxCell><mxCell id="u4F1EandDgzio56QneHj-25" value="" style="line;strokeWidth=1;fillColor=none;align=left;verticalAlign=middle;spacingTop=-1;spacingLeft=3;spacingRight=3;rotatable=0;labelPosition=right;points=[];portConstraint=eastwest;" parent="u4F1EandDgzio56QneHj-23" vertex="1"><mxGeometry y="52" width="230" height="8" as="geometry"/></mxCell><mxCell id="u4F1EandDgzio56QneHj-26" value="+ registryParking(parking: Parking): void" style="text;strokeColor=none;fillColor=none;align=left;verticalAlign=top;spacingLeft=4;spacingRight=4;overflow=hidden;rotatable=0;points=[[0,0.5],[1,0.5]];portConstraint=eastwest;" parent="u4F1EandDgzio56QneHj-23" vertex="1"><mxGeometry y="60" width="230" height="26" as="geometry"/></mxCell><mxCell id="u4F1EandDgzio56QneHj-28" value="+ buyCredit(amount: Double): void" style="text;strokeColor=none;fillColor=none;align=left;verticalAlign=top;spacingLeft=4;spacingRight=4;overflow=hidden;rotatable=0;points=[[0,0.5],[1,0.5]];portConstraint=eastwest;" parent="u4F1EandDgzio56QneHj-23" vertex="1"><mxGeometry y="86" width="230" height="26" as="geometry"/></mxCell><mxCell id="u4F1EandDgzio56QneHj-29" value="ParkingPerApp" style="swimlane;fontStyle=1;align=center;verticalAlign=top;childLayout=stackLayout;horizontal=1;startSize=26;horizontalStack=0;resizeParent=1;resizeParentMax=0;resizeLast=0;collapsible=1;marginBottom=0;" parent="1" vertex="1"><mxGeometry x="1205" y="190" width="180" height="86" as="geometry"/></mxCell><mxCell id="u4F1EandDgzio56QneHj-30" value="+ field: type" style="text;strokeColor=none;fillColor=none;align=left;verticalAlign=top;spacingLeft=4;spacingRight=4;overflow=hidden;rotatable=0;points=[[0,0.5],[1,0.5]];portConstraint=eastwest;" parent="u4F1EandDgzio56QneHj-29" vertex="1"><mxGeometry y="26" width="180" height="26" as="geometry"/></mxCell><mxCell id="u4F1EandDgzio56QneHj-31" value="" style="line;strokeWidth=1;fillColor=none;align=left;verticalAlign=middle;spacingTop=-1;spacingLeft=3;spacingRight=3;rotatable=0;labelPosition=right;points=[];portConstraint=eastwest;" parent="u4F1EandDgzio56QneHj-29" vertex="1"><mxGeometry y="52" width="180" height="8" as="geometry"/></mxCell><mxCell id="u4F1EandDgzio56QneHj-32" value="+ method(type): type" style="text;strokeColor=none;fillColor=none;align=left;verticalAlign=top;spacingLeft=4;spacingRight=4;overflow=hidden;rotatable=0;points=[[0,0.5],[1,0.5]];portConstraint=eastwest;" parent="u4F1EandDgzio56QneHj-29" vertex="1"><mxGeometry y="60" width="180" height="26" as="geometry"/></mxCell><mxCell id="u4F1EandDgzio56QneHj-39" value="parkings" style="endArrow=block;endFill=1;html=1;edgeStyle=orthogonalEdgeStyle;align=left;verticalAlign=top;" parent="1" source="u4F1EandDgzio56QneHj-8" target="u4F1EandDgzio56QneHj-19" edge="1"><mxGeometry x="-1" relative="1" as="geometry"><mxPoint x="510" y="220" as="sourcePoint"/><mxPoint x="670" y="220" as="targetPoint"/></mxGeometry></mxCell><mxCell id="u4F1EandDgzio56QneHj-40" value="1" style="edgeLabel;resizable=0;html=1;align=left;verticalAlign=bottom;" parent="u4F1EandDgzio56QneHj-39" connectable="0" vertex="1"><mxGeometry x="-1" relative="1" as="geometry"/></mxCell><mxCell id="u4F1EandDgzio56QneHj-43" value="*" style="text;html=1;strokeColor=none;fillColor=none;align=center;verticalAlign=middle;whiteSpace=wrap;rounded=0;" parent="1" vertex="1"><mxGeometry x="840" y="110" width="40" height="20" as="geometry"/></mxCell><mxCell id="u4F1EandDgzio56QneHj-44" value="pointsOfSale" style="endArrow=block;endFill=1;html=1;edgeStyle=orthogonalEdgeStyle;align=left;verticalAlign=top;" parent="1" source="u4F1EandDgzio56QneHj-8" target="u4F1EandDgzio56QneHj-23" edge="1"><mxGeometry x="-1" relative="1" as="geometry"><mxPoint x="490" y="230" as="sourcePoint"/><mxPoint x="650" y="230" as="targetPoint"/></mxGeometry></mxCell><mxCell id="u4F1EandDgzio56QneHj-45" value="1" style="edgeLabel;resizable=0;html=1;align=left;verticalAlign=bottom;" parent="u4F1EandDgzio56QneHj-44" connectable="0" vertex="1"><mxGeometry x="-1" relative="1" as="geometry"><mxPoint x="-11" y="17" as="offset"/></mxGeometry></mxCell><mxCell id="u4F1EandDgzio56QneHj-46" value="*" style="text;html=1;strokeColor=none;fillColor=none;align=center;verticalAlign=middle;whiteSpace=wrap;rounded=0;" parent="1" vertex="1"><mxGeometry x="530" y="240" width="40" height="20" as="geometry"/></mxCell><mxCell id="B9xKihhxTxYCXN0yQaSQ-9" value="AppSEM" style="swimlane;fontStyle=1;align=center;verticalAlign=top;childLayout=stackLayout;horizontal=1;startSize=26;horizontalStack=0;resizeParent=1;resizeParentMax=0;resizeLast=0;collapsible=1;marginBottom=0;" parent="1" vertex="1"><mxGeometry x="-167.5" y="-340" width="407.5" height="242" as="geometry"/></mxCell><mxCell id="B9xKihhxTxYCXN0yQaSQ-10" value="- balance: Double" style="text;strokeColor=none;fillColor=none;align=left;verticalAlign=top;spacingLeft=4;spacingRight=4;overflow=hidden;rotatable=0;points=[[0,0.5],[1,0.5]];portConstraint=eastwest;" parent="B9xKihhxTxYCXN0yQaSQ-9" vertex="1"><mxGeometry y="26" width="407.5" height="26" as="geometry"/></mxCell><mxCell id="OAy3l3gwPe-D0ySz-d9f-1" value="- currentArea: ParkingArea" style="text;strokeColor=none;fillColor=none;align=left;verticalAlign=top;spacingLeft=4;spacingRight=4;overflow=hidden;rotatable=0;points=[[0,0.5],[1,0.5]];portConstraint=eastwest;" parent="B9xKihhxTxYCXN0yQaSQ-9" vertex="1"><mxGeometry y="52" width="407.5" height="26" as="geometry"/></mxCell><mxCell id="B9xKihhxTxYCXN0yQaSQ-11" value="" style="line;strokeWidth=1;fillColor=none;align=left;verticalAlign=middle;spacingTop=-1;spacingLeft=3;spacingRight=3;rotatable=0;labelPosition=right;points=[];portConstraint=eastwest;" parent="B9xKihhxTxYCXN0yQaSQ-9" vertex="1"><mxGeometry y="78" width="407.5" height="8" as="geometry"/></mxCell><mxCell id="B9xKihhxTxYCXN0yQaSQ-89" value="+ new (AlertManager, ParkingModeStrategy)" style="text;strokeColor=none;fillColor=none;align=left;verticalAlign=top;spacingLeft=4;spacingRight=4;overflow=hidden;rotatable=0;points=[[0,0.5],[1,0.5]];portConstraint=eastwest;fontStyle=5" parent="B9xKihhxTxYCXN0yQaSQ-9" vertex="1"><mxGeometry y="86" width="407.5" height="26" as="geometry"/></mxCell><mxCell id="B9xKihhxTxYCXN0yQaSQ-12" value="+ startParking(patent: String, area : ParkingArea ): StartParkingResponse" style="text;strokeColor=none;fillColor=none;align=left;verticalAlign=top;spacingLeft=4;spacingRight=4;overflow=hidden;rotatable=0;points=[[0,0.5],[1,0.5]];portConstraint=eastwest;" parent="B9xKihhxTxYCXN0yQaSQ-9" vertex="1"><mxGeometry y="112" width="407.5" height="26" as="geometry"/></mxCell><mxCell id="B9xKihhxTxYCXN0yQaSQ-13" value="+ endParking(patent: String): EndParkingResponse" style="text;strokeColor=none;fillColor=none;align=left;verticalAlign=top;spacingLeft=4;spacingRight=4;overflow=hidden;rotatable=0;points=[[0,0.5],[1,0.5]];portConstraint=eastwest;" parent="B9xKihhxTxYCXN0yQaSQ-9" vertex="1"><mxGeometry y="138" width="407.5" height="26" as="geometry"/></mxCell><mxCell id="B9xKihhxTxYCXN0yQaSQ-14" value="+ getBalance(): Double" style="text;strokeColor=none;fillColor=none;align=left;verticalAlign=top;spacingLeft=4;spacingRight=4;overflow=hidden;rotatable=0;points=[[0,0.5],[1,0.5]];portConstraint=eastwest;" parent="B9xKihhxTxYCXN0yQaSQ-9" vertex="1"><mxGeometry y="164" width="407.5" height="26" as="geometry"/></mxCell><mxCell id="OAy3l3gwPe-D0ySz-d9f-3" value="+ updateCurrentarea(ParkingArea): void" style="text;strokeColor=none;fillColor=none;align=left;verticalAlign=top;spacingLeft=4;spacingRight=4;overflow=hidden;rotatable=0;points=[[0,0.5],[1,0.5]];portConstraint=eastwest;" parent="B9xKihhxTxYCXN0yQaSQ-9" vertex="1"><mxGeometry y="190" width="407.5" height="26" as="geometry"/></mxCell><mxCell id="B9xKihhxTxYCXN0yQaSQ-23" value="- getMaxHours(credit: int): int" style="text;strokeColor=none;fillColor=none;align=left;verticalAlign=top;spacingLeft=4;spacingRight=4;overflow=hidden;rotatable=0;points=[[0,0.5],[1,0.5]];portConstraint=eastwest;" parent="B9xKihhxTxYCXN0yQaSQ-9" vertex="1"><mxGeometry y="216" width="407.5" height="26" as="geometry"/></mxCell><mxCell id="B9xKihhxTxYCXN0yQaSQ-15" value="StartParkingResponse" style="swimlane;fontStyle=1;align=center;verticalAlign=top;childLayout=stackLayout;horizontal=1;startSize=26;horizontalStack=0;resizeParent=1;resizeParentMax=0;resizeLast=0;collapsible=1;marginBottom=0;" parent="1" vertex="1"><mxGeometry x="-500" y="-176" width="160" height="112" as="geometry"/></mxCell><mxCell id="B9xKihhxTxYCXN0yQaSQ-16" value="+ startHour: Hour" style="text;strokeColor=none;fillColor=none;align=left;verticalAlign=top;spacingLeft=4;spacingRight=4;overflow=hidden;rotatable=0;points=[[0,0.5],[1,0.5]];portConstraint=eastwest;" parent="B9xKihhxTxYCXN0yQaSQ-15" vertex="1"><mxGeometry y="26" width="160" height="26" as="geometry"/></mxCell><mxCell id="B9xKihhxTxYCXN0yQaSQ-28" value="+ maxHour: type" style="text;strokeColor=none;fillColor=none;align=left;verticalAlign=top;spacingLeft=4;spacingRight=4;overflow=hidden;rotatable=0;points=[[0,0.5],[1,0.5]];portConstraint=eastwest;" parent="B9xKihhxTxYCXN0yQaSQ-15" vertex="1"><mxGeometry y="52" width="160" height="26" as="geometry"/></mxCell><mxCell id="B9xKihhxTxYCXN0yQaSQ-17" value="" style="line;strokeWidth=1;fillColor=none;align=left;verticalAlign=middle;spacingTop=-1;spacingLeft=3;spacingRight=3;rotatable=0;labelPosition=right;points=[];portConstraint=eastwest;" parent="B9xKihhxTxYCXN0yQaSQ-15" vertex="1"><mxGeometry y="78" width="160" height="8" as="geometry"/></mxCell><mxCell id="B9xKihhxTxYCXN0yQaSQ-18" value="+ new(Hour, int)" style="text;strokeColor=none;fillColor=none;align=left;verticalAlign=top;spacingLeft=4;spacingRight=4;overflow=hidden;rotatable=0;points=[[0,0.5],[1,0.5]];portConstraint=eastwest;fontStyle=5" parent="B9xKihhxTxYCXN0yQaSQ-15" vertex="1"><mxGeometry y="86" width="160" height="26" as="geometry"/></mxCell><mxCell id="B9xKihhxTxYCXN0yQaSQ-19" value="EndParkingResponse" style="swimlane;fontStyle=1;align=center;verticalAlign=top;childLayout=stackLayout;horizontal=1;startSize=26;horizontalStack=0;resizeParent=1;resizeParentMax=0;resizeLast=0;collapsible=1;marginBottom=0;" parent="1" vertex="1"><mxGeometry x="-520" y="-430" width="180" height="164" as="geometry"/></mxCell><mxCell id="B9xKihhxTxYCXN0yQaSQ-20" value="+ startHour: Hour" style="text;strokeColor=none;fillColor=none;align=left;verticalAlign=top;spacingLeft=4;spacingRight=4;overflow=hidden;rotatable=0;points=[[0,0.5],[1,0.5]];portConstraint=eastwest;" parent="B9xKihhxTxYCXN0yQaSQ-19" vertex="1"><mxGeometry y="26" width="180" height="26" as="geometry"/></mxCell><mxCell id="B9xKihhxTxYCXN0yQaSQ-29" value="+ endHour: Hour" style="text;strokeColor=none;fillColor=none;align=left;verticalAlign=top;spacingLeft=4;spacingRight=4;overflow=hidden;rotatable=0;points=[[0,0.5],[1,0.5]];portConstraint=eastwest;" parent="B9xKihhxTxYCXN0yQaSQ-19" vertex="1"><mxGeometry y="52" width="180" height="26" as="geometry"/></mxCell><mxCell id="B9xKihhxTxYCXN0yQaSQ-30" value="+ duration: Hour" style="text;strokeColor=none;fillColor=none;align=left;verticalAlign=top;spacingLeft=4;spacingRight=4;overflow=hidden;rotatable=0;points=[[0,0.5],[1,0.5]];portConstraint=eastwest;" parent="B9xKihhxTxYCXN0yQaSQ-19" vertex="1"><mxGeometry y="78" width="180" height="26" as="geometry"/></mxCell><mxCell id="B9xKihhxTxYCXN0yQaSQ-31" value="+ cost: float" style="text;strokeColor=none;fillColor=none;align=left;verticalAlign=top;spacingLeft=4;spacingRight=4;overflow=hidden;rotatable=0;points=[[0,0.5],[1,0.5]];portConstraint=eastwest;" parent="B9xKihhxTxYCXN0yQaSQ-19" vertex="1"><mxGeometry y="104" width="180" height="26" as="geometry"/></mxCell><mxCell id="B9xKihhxTxYCXN0yQaSQ-21" value="" style="line;strokeWidth=1;fillColor=none;align=left;verticalAlign=middle;spacingTop=-1;spacingLeft=3;spacingRight=3;rotatable=0;labelPosition=right;points=[];portConstraint=eastwest;" parent="B9xKihhxTxYCXN0yQaSQ-19" vertex="1"><mxGeometry y="130" width="180" height="8" as="geometry"/></mxCell><mxCell id="B9xKihhxTxYCXN0yQaSQ-22" value="+ new(Hour, Hour, Hour, float)" style="text;strokeColor=none;fillColor=none;align=left;verticalAlign=top;spacingLeft=4;spacingRight=4;overflow=hidden;rotatable=0;points=[[0,0.5],[1,0.5]];portConstraint=eastwest;fontStyle=5" parent="B9xKihhxTxYCXN0yQaSQ-19" vertex="1"><mxGeometry y="138" width="180" height="26" as="geometry"/></mxCell><mxCell id="B9xKihhxTxYCXN0yQaSQ-24" value="" style="endArrow=block;endFill=1;html=1;edgeStyle=orthogonalEdgeStyle;align=left;verticalAlign=top;rounded=0;" parent="1" source="B9xKihhxTxYCXN0yQaSQ-15" target="B9xKihhxTxYCXN0yQaSQ-9" edge="1"><mxGeometry x="-0.7759" y="40" relative="1" as="geometry"><mxPoint x="240" y="-310" as="sourcePoint"/><mxPoint x="400" y="-310" as="targetPoint"/><mxPoint as="offset"/></mxGeometry></mxCell><mxCell id="B9xKihhxTxYCXN0yQaSQ-25" value="1" style="edgeLabel;resizable=0;html=1;align=left;verticalAlign=bottom;" parent="B9xKihhxTxYCXN0yQaSQ-24" connectable="0" vertex="1"><mxGeometry x="-1" relative="1" as="geometry"><mxPoint x="3" y="18" as="offset"/></mxGeometry></mxCell><mxCell id="B9xKihhxTxYCXN0yQaSQ-26" value="" style="endArrow=block;endFill=1;html=1;edgeStyle=orthogonalEdgeStyle;align=left;verticalAlign=top;rounded=0;" parent="1" source="B9xKihhxTxYCXN0yQaSQ-19" target="B9xKihhxTxYCXN0yQaSQ-9" edge="1"><mxGeometry x="-0.8966" y="-60" relative="1" as="geometry"><mxPoint x="240" y="-310" as="sourcePoint"/><mxPoint x="400" y="-310" as="targetPoint"/><mxPoint as="offset"/></mxGeometry></mxCell><mxCell id="B9xKihhxTxYCXN0yQaSQ-27" value="1" style="edgeLabel;resizable=0;html=1;align=left;verticalAlign=bottom;" parent="B9xKihhxTxYCXN0yQaSQ-26" connectable="0" vertex="1"><mxGeometry x="-1" relative="1" as="geometry"><mxPoint x="2" y="18" as="offset"/></mxGeometry></mxCell><mxCell id="B9xKihhxTxYCXN0yQaSQ-34" value="Inspector" style="swimlane;fontStyle=1;align=center;verticalAlign=top;childLayout=stackLayout;horizontal=1;startSize=26;horizontalStack=0;resizeParent=1;resizeParentMax=0;resizeLast=0;collapsible=1;marginBottom=0;" parent="1" vertex="1"><mxGeometry x="445" y="-210" width="235" height="138" as="geometry"/></mxCell><mxCell id="B9xKihhxTxYCXN0yQaSQ-35" value="+ app: App" style="text;strokeColor=none;fillColor=none;align=left;verticalAlign=top;spacingLeft=4;spacingRight=4;overflow=hidden;rotatable=0;points=[[0,0.5],[1,0.5]];portConstraint=eastwest;" parent="B9xKihhxTxYCXN0yQaSQ-34" vertex="1"><mxGeometry y="26" width="235" height="26" as="geometry"/></mxCell><mxCell id="B9xKihhxTxYCXN0yQaSQ-36" value="" style="line;strokeWidth=1;fillColor=none;align=left;verticalAlign=middle;spacingTop=-1;spacingLeft=3;spacingRight=3;rotatable=0;labelPosition=right;points=[];portConstraint=eastwest;" parent="B9xKihhxTxYCXN0yQaSQ-34" vertex="1"><mxGeometry y="52" width="235" height="8" as="geometry"/></mxCell><mxCell id="B9xKihhxTxYCXN0yQaSQ-37" value="+ new(ParkingArea, AppInspector)" style="text;strokeColor=none;fillColor=none;align=left;verticalAlign=top;spacingLeft=4;spacingRight=4;overflow=hidden;rotatable=0;points=[[0,0.5],[1,0.5]];portConstraint=eastwest;fontStyle=5" parent="B9xKihhxTxYCXN0yQaSQ-34" vertex="1"><mxGeometry y="60" width="235" height="26" as="geometry"/></mxCell><mxCell id="B9xKihhxTxYCXN0yQaSQ-47" value="+ checkParkingValid(patent: String) : bool" style="text;strokeColor=none;fillColor=none;align=left;verticalAlign=top;spacingLeft=4;spacingRight=4;overflow=hidden;rotatable=0;points=[[0,0.5],[1,0.5]];portConstraint=eastwest;fontStyle=0" parent="B9xKihhxTxYCXN0yQaSQ-34" vertex="1"><mxGeometry y="86" width="235" height="26" as="geometry"/></mxCell><mxCell id="B9xKihhxTxYCXN0yQaSQ-57" value="+ createInfraction(patent: String) : void" style="text;strokeColor=none;fillColor=none;align=left;verticalAlign=top;spacingLeft=4;spacingRight=4;overflow=hidden;rotatable=0;points=[[0,0.5],[1,0.5]];portConstraint=eastwest;fontStyle=0" parent="B9xKihhxTxYCXN0yQaSQ-34" vertex="1"><mxGeometry y="112" width="235" height="26" as="geometry"/></mxCell><mxCell id="B9xKihhxTxYCXN0yQaSQ-39" value="" style="endArrow=block;startArrow=block;endFill=1;startFill=1;html=1;rounded=0;" parent="1" source="B9xKihhxTxYCXN0yQaSQ-34" target="u4F1EandDgzio56QneHj-8" edge="1"><mxGeometry width="160" relative="1" as="geometry"><mxPoint x="500" y="40" as="sourcePoint"/><mxPoint x="660" y="40" as="targetPoint"/><Array as="points"><mxPoint x="565" y="-10"/></Array></mxGeometry></mxCell><mxCell id="B9xKihhxTxYCXN0yQaSQ-41" value="1" style="text;align=center;fontStyle=1;verticalAlign=middle;spacingLeft=3;spacingRight=3;strokeColor=none;rotatable=0;points=[[0,0.5],[1,0.5]];portConstraint=eastwest;" parent="1" vertex="1"><mxGeometry x="530" y="-65" width="80" height="26" as="geometry"/></mxCell><mxCell id="B9xKihhxTxYCXN0yQaSQ-42" value="1" style="text;align=center;fontStyle=1;verticalAlign=middle;spacingLeft=3;spacingRight=3;strokeColor=none;rotatable=0;points=[[0,0.5],[1,0.5]];portConstraint=eastwest;" parent="1" vertex="1"><mxGeometry x="535" y="13" width="80" height="26" as="geometry"/></mxCell><mxCell id="B9xKihhxTxYCXN0yQaSQ-48" value="AppInspector" style="swimlane;fontStyle=1;align=center;verticalAlign=top;childLayout=stackLayout;horizontal=1;startSize=26;horizontalStack=0;resizeParent=1;resizeParentMax=0;resizeLast=0;collapsible=1;marginBottom=0;" parent="1" vertex="1"><mxGeometry x="452.5" y="-400" width="220" height="112" as="geometry"/></mxCell><mxCell id="B9xKihhxTxYCXN0yQaSQ-49" value="+ field: type" style="text;strokeColor=none;fillColor=none;align=left;verticalAlign=top;spacingLeft=4;spacingRight=4;overflow=hidden;rotatable=0;points=[[0,0.5],[1,0.5]];portConstraint=eastwest;" parent="B9xKihhxTxYCXN0yQaSQ-48" vertex="1"><mxGeometry y="26" width="220" height="26" as="geometry"/></mxCell><mxCell id="B9xKihhxTxYCXN0yQaSQ-50" value="" style="line;strokeWidth=1;fillColor=none;align=left;verticalAlign=middle;spacingTop=-1;spacingLeft=3;spacingRight=3;rotatable=0;labelPosition=right;points=[];portConstraint=eastwest;" parent="B9xKihhxTxYCXN0yQaSQ-48" vertex="1"><mxGeometry y="52" width="220" height="8" as="geometry"/></mxCell><mxCell id="B9xKihhxTxYCXN0yQaSQ-51" value="+ registryViolation(patent: String): type" style="text;strokeColor=none;fillColor=none;align=left;verticalAlign=top;spacingLeft=4;spacingRight=4;overflow=hidden;rotatable=0;points=[[0,0.5],[1,0.5]];portConstraint=eastwest;" parent="B9xKihhxTxYCXN0yQaSQ-48" vertex="1"><mxGeometry y="60" width="220" height="26" as="geometry"/></mxCell><mxCell id="B9xKihhxTxYCXN0yQaSQ-55" value="+ getParking(patent: String): Parking" style="text;strokeColor=none;fillColor=none;align=left;verticalAlign=top;spacingLeft=4;spacingRight=4;overflow=hidden;rotatable=0;points=[[0,0.5],[1,0.5]];portConstraint=eastwest;" parent="B9xKihhxTxYCXN0yQaSQ-48" vertex="1"><mxGeometry y="86" width="220" height="26" as="geometry"/></mxCell><mxCell id="B9xKihhxTxYCXN0yQaSQ-61" value="Cellphone" style="swimlane;fontStyle=1;align=center;verticalAlign=top;childLayout=stackLayout;horizontal=1;startSize=26;horizontalStack=0;resizeParent=1;resizeParentMax=0;resizeLast=0;collapsible=1;marginBottom=0;" parent="1" vertex="1"><mxGeometry y="-790" width="210" height="216" as="geometry"/></mxCell><mxCell id="B9xKihhxTxYCXN0yQaSQ-62" value="- phoneNumber: String" style="text;strokeColor=none;fillColor=none;align=left;verticalAlign=top;spacingLeft=4;spacingRight=4;overflow=hidden;rotatable=0;points=[[0,0.5],[1,0.5]];portConstraint=eastwest;" parent="B9xKihhxTxYCXN0yQaSQ-61" vertex="1"><mxGeometry y="26" width="210" height="26" as="geometry"/></mxCell><mxCell id="GRutFDu-okp0kMUJ0biT-13" value="- patentCarAssociated: String" style="text;strokeColor=none;fillColor=none;align=left;verticalAlign=top;spacingLeft=4;spacingRight=4;overflow=hidden;rotatable=0;points=[[0,0.5],[1,0.5]];portConstraint=eastwest;" parent="B9xKihhxTxYCXN0yQaSQ-61" vertex="1"><mxGeometry y="52" width="210" height="26" as="geometry"/></mxCell><mxCell id="B9xKihhxTxYCXN0yQaSQ-63" value="" style="line;strokeWidth=1;fillColor=none;align=left;verticalAlign=middle;spacingTop=-1;spacingLeft=3;spacingRight=3;rotatable=0;labelPosition=right;points=[];portConstraint=eastwest;" parent="B9xKihhxTxYCXN0yQaSQ-61" vertex="1"><mxGeometry y="78" width="210" height="8" as="geometry"/></mxCell><mxCell id="B9xKihhxTxYCXN0yQaSQ-64" value="+ new(int, String, App)" style="text;strokeColor=none;fillColor=none;align=left;verticalAlign=top;spacingLeft=4;spacingRight=4;overflow=hidden;rotatable=0;points=[[0,0.5],[1,0.5]];portConstraint=eastwest;fontStyle=5" parent="B9xKihhxTxYCXN0yQaSQ-61" vertex="1"><mxGeometry y="86" width="210" height="26" as="geometry"/></mxCell><mxCell id="B9xKihhxTxYCXN0yQaSQ-96" value="+ update(String, String) : void" style="text;strokeColor=none;fillColor=none;align=left;verticalAlign=top;spacingLeft=4;spacingRight=4;overflow=hidden;rotatable=0;points=[[0,0.5],[1,0.5]];portConstraint=eastwest;fontStyle=0" parent="B9xKihhxTxYCXN0yQaSQ-61" vertex="1"><mxGeometry y="112" width="210" height="26" as="geometry"/></mxCell><mxCell id="cpH_HcVHQhqGvUeLm5oX-1" value="+ buyCredit(Double) : void" style="text;strokeColor=none;fillColor=none;align=left;verticalAlign=top;spacingLeft=4;spacingRight=4;overflow=hidden;rotatable=0;points=[[0,0.5],[1,0.5]];portConstraint=eastwest;fontStyle=0" parent="B9xKihhxTxYCXN0yQaSQ-61" vertex="1"><mxGeometry y="138" width="210" height="26" as="geometry"/></mxCell><mxCell id="cpH_HcVHQhqGvUeLm5oX-30" value="+ startParking() : void" style="text;strokeColor=none;fillColor=none;align=left;verticalAlign=top;spacingLeft=4;spacingRight=4;overflow=hidden;rotatable=0;points=[[0,0.5],[1,0.5]];portConstraint=eastwest;fontStyle=0" parent="B9xKihhxTxYCXN0yQaSQ-61" vertex="1"><mxGeometry y="164" width="210" height="26" as="geometry"/></mxCell><mxCell id="cpH_HcVHQhqGvUeLm5oX-31" value="+ endParking() : void" style="text;strokeColor=none;fillColor=none;align=left;verticalAlign=top;spacingLeft=4;spacingRight=4;overflow=hidden;rotatable=0;points=[[0,0.5],[1,0.5]];portConstraint=eastwest;fontStyle=0" parent="B9xKihhxTxYCXN0yQaSQ-61" vertex="1"><mxGeometry y="190" width="210" height="26" as="geometry"/></mxCell><mxCell id="B9xKihhxTxYCXN0yQaSQ-76" value="AlertManager" style="swimlane;fontStyle=1;align=center;verticalAlign=top;childLayout=stackLayout;horizontal=1;startSize=26;horizontalStack=0;resizeParent=1;resizeParentMax=0;resizeLast=0;collapsible=1;marginBottom=0;" parent="1" vertex="1"><mxGeometry x="-310" y="-700" width="220" height="164" as="geometry"/></mxCell><mxCell id="B9xKihhxTxYCXN0yQaSQ-77" value="- listeners: Map&lt;String, AlertListener&gt;" style="text;strokeColor=none;fillColor=none;align=left;verticalAlign=top;spacingLeft=4;spacingRight=4;overflow=hidden;rotatable=0;points=[[0,0.5],[1,0.5]];portConstraint=eastwest;" parent="B9xKihhxTxYCXN0yQaSQ-76" vertex="1"><mxGeometry y="26" width="220" height="26" as="geometry"/></mxCell><mxCell id="B9xKihhxTxYCXN0yQaSQ-78" value="" style="line;strokeWidth=1;fillColor=none;align=left;verticalAlign=middle;spacingTop=-1;spacingLeft=3;spacingRight=3;rotatable=0;labelPosition=right;points=[];portConstraint=eastwest;" parent="B9xKihhxTxYCXN0yQaSQ-76" vertex="1"><mxGeometry y="52" width="220" height="8" as="geometry"/></mxCell><mxCell id="B9xKihhxTxYCXN0yQaSQ-86" value="+ new(List&lt;AlertListener&gt;)" style="text;strokeColor=none;fillColor=none;align=left;verticalAlign=top;spacingLeft=4;spacingRight=4;overflow=hidden;rotatable=0;points=[[0,0.5],[1,0.5]];portConstraint=eastwest;fontStyle=5" parent="B9xKihhxTxYCXN0yQaSQ-76" vertex="1"><mxGeometry y="60" width="220" height="26" as="geometry"/></mxCell><mxCell id="B9xKihhxTxYCXN0yQaSQ-79" value="+ suscribe(String, AlertListener): void" style="text;strokeColor=none;fillColor=none;align=left;verticalAlign=top;spacingLeft=4;spacingRight=4;overflow=hidden;rotatable=0;points=[[0,0.5],[1,0.5]];portConstraint=eastwest;" parent="B9xKihhxTxYCXN0yQaSQ-76" vertex="1"><mxGeometry y="86" width="220" height="26" as="geometry"/></mxCell><mxCell id="B9xKihhxTxYCXN0yQaSQ-80" value="+ unsuscribe(String, AlertListener): void" style="text;strokeColor=none;fillColor=none;align=left;verticalAlign=top;spacingLeft=4;spacingRight=4;overflow=hidden;rotatable=0;points=[[0,0.5],[1,0.5]];portConstraint=eastwest;" parent="B9xKihhxTxYCXN0yQaSQ-76" vertex="1"><mxGeometry y="112" width="220" height="26" as="geometry"/></mxCell><mxCell id="B9xKihhxTxYCXN0yQaSQ-81" value="+ notify(String, String): void" style="text;strokeColor=none;fillColor=none;align=left;verticalAlign=top;spacingLeft=4;spacingRight=4;overflow=hidden;rotatable=0;points=[[0,0.5],[1,0.5]];portConstraint=eastwest;" parent="B9xKihhxTxYCXN0yQaSQ-76" vertex="1"><mxGeometry y="138" width="220" height="26" as="geometry"/></mxCell><mxCell id="B9xKihhxTxYCXN0yQaSQ-82" value="&lt;p style=&quot;margin: 0px ; margin-top: 4px ; text-align: center&quot;&gt;&lt;i&gt;&amp;lt;&amp;lt;Interface&amp;gt;&amp;gt;&lt;/i&gt;&lt;br&gt;&lt;b&gt;AlertListener&lt;/b&gt;&lt;/p&gt;&lt;hr size=&quot;1&quot;&gt;&lt;p style=&quot;margin: 0px ; margin-left: 4px&quot;&gt;&lt;/p&gt;&lt;p style=&quot;margin: 0px ; margin-left: 4px&quot;&gt;+ update(String, String): void&lt;br&gt;&lt;/p&gt;" style="verticalAlign=top;align=left;overflow=fill;fontSize=12;fontFamily=Helvetica;html=1;" parent="1" vertex="1"><mxGeometry x="-322.5" y="-850" width="185" height="70" as="geometry"/></mxCell><mxCell id="B9xKihhxTxYCXN0yQaSQ-84" value="listeners" style="endArrow=block;endFill=1;html=1;edgeStyle=orthogonalEdgeStyle;align=left;verticalAlign=top;rounded=0;" parent="1" edge="1"><mxGeometry x="-0.0127" y="49" relative="1" as="geometry"><mxPoint x="-231" y="-701" as="sourcePoint"/><mxPoint x="-231" y="-779.9999999999999" as="targetPoint"/><mxPoint as="offset"/></mxGeometry></mxCell><mxCell id="B9xKihhxTxYCXN0yQaSQ-85" value="1" style="edgeLabel;resizable=0;html=1;align=left;verticalAlign=bottom;" parent="B9xKihhxTxYCXN0yQaSQ-84" connectable="0" vertex="1"><mxGeometry x="-1" relative="1" as="geometry"/></mxCell><mxCell id="B9xKihhxTxYCXN0yQaSQ-87" value="eventManager" style="endArrow=block;endFill=1;html=1;edgeStyle=orthogonalEdgeStyle;align=left;verticalAlign=top;rounded=0;" parent="1" source="B9xKihhxTxYCXN0yQaSQ-9" target="B9xKihhxTxYCXN0yQaSQ-76" edge="1"><mxGeometry x="0.0595" y="68" relative="1" as="geometry"><mxPoint x="-240" y="-440" as="sourcePoint"/><mxPoint x="-80" y="-440" as="targetPoint"/><Array as="points"><mxPoint x="-80" y="-438"/><mxPoint x="-220" y="-438"/></Array><mxPoint as="offset"/></mxGeometry></mxCell><mxCell id="B9xKihhxTxYCXN0yQaSQ-88" value="1" style="edgeLabel;resizable=0;html=1;align=left;verticalAlign=bottom;" parent="B9xKihhxTxYCXN0yQaSQ-87" connectable="0" vertex="1"><mxGeometry x="-1" relative="1" as="geometry"/></mxCell><mxCell id="B9xKihhxTxYCXN0yQaSQ-95" value="" style="endArrow=block;dashed=1;endFill=0;endSize=12;html=1;rounded=0;" parent="1" source="B9xKihhxTxYCXN0yQaSQ-82" target="B9xKihhxTxYCXN0yQaSQ-61" edge="1"><mxGeometry width="160" relative="1" as="geometry"><mxPoint x="-113.5" y="-814.9999999999999" as="sourcePoint"/><mxPoint x="589" y="-470" as="targetPoint"/><Array as="points"><mxPoint x="88" y="-815"/></Array></mxGeometry></mxCell><mxCell id="GRutFDu-okp0kMUJ0biT-1" value="&lt;p style=&quot;margin: 0px ; margin-top: 4px ; text-align: center&quot;&gt;&lt;i&gt;&amp;lt;&amp;lt;Interface&amp;gt;&amp;gt;&lt;/i&gt;&lt;br&gt;&lt;b&gt;ParkingModeStrategy&lt;/b&gt;&lt;/p&gt;&lt;hr size=&quot;1&quot;&gt;&lt;p style=&quot;margin: 0px ; margin-left: 4px&quot;&gt;&lt;/p&gt;&lt;p style=&quot;margin: 0px ; margin-left: 4px&quot;&gt;+ startParking(): StartParkingResponse&lt;br&gt;+ endParking(): EndParkingResponse&lt;/p&gt;" style="verticalAlign=top;align=left;overflow=fill;fontSize=12;fontFamily=Helvetica;html=1;" parent="1" vertex="1"><mxGeometry x="-330" y="-24" width="255" height="97" as="geometry"/></mxCell><mxCell id="GRutFDu-okp0kMUJ0biT-2" value="ManualStrategy" style="swimlane;fontStyle=1;align=center;verticalAlign=top;childLayout=stackLayout;horizontal=1;startSize=26;horizontalStack=0;resizeParent=1;resizeParentMax=0;resizeLast=0;collapsible=1;marginBottom=0;" parent="1" vertex="1"><mxGeometry x="-390" y="117" width="160" height="86" as="geometry"/></mxCell><mxCell id="GRutFDu-okp0kMUJ0biT-3" value="+ field: type" style="text;strokeColor=none;fillColor=none;align=left;verticalAlign=top;spacingLeft=4;spacingRight=4;overflow=hidden;rotatable=0;points=[[0,0.5],[1,0.5]];portConstraint=eastwest;" parent="GRutFDu-okp0kMUJ0biT-2" vertex="1"><mxGeometry y="26" width="160" height="26" as="geometry"/></mxCell><mxCell id="GRutFDu-okp0kMUJ0biT-4" value="" style="line;strokeWidth=1;fillColor=none;align=left;verticalAlign=middle;spacingTop=-1;spacingLeft=3;spacingRight=3;rotatable=0;labelPosition=right;points=[];portConstraint=eastwest;" parent="GRutFDu-okp0kMUJ0biT-2" vertex="1"><mxGeometry y="52" width="160" height="8" as="geometry"/></mxCell><mxCell id="GRutFDu-okp0kMUJ0biT-5" value="+ method(type): type" style="text;strokeColor=none;fillColor=none;align=left;verticalAlign=top;spacingLeft=4;spacingRight=4;overflow=hidden;rotatable=0;points=[[0,0.5],[1,0.5]];portConstraint=eastwest;" parent="GRutFDu-okp0kMUJ0biT-2" vertex="1"><mxGeometry y="60" width="160" height="26" as="geometry"/></mxCell><mxCell id="GRutFDu-okp0kMUJ0biT-6" value="AutomaticStrategy" style="swimlane;fontStyle=1;align=center;verticalAlign=top;childLayout=stackLayout;horizontal=1;startSize=26;horizontalStack=0;resizeParent=1;resizeParentMax=0;resizeLast=0;collapsible=1;marginBottom=0;" parent="1" vertex="1"><mxGeometry x="-180" y="117" width="160" height="86" as="geometry"/></mxCell><mxCell id="GRutFDu-okp0kMUJ0biT-7" value="+ field: type" style="text;strokeColor=none;fillColor=none;align=left;verticalAlign=top;spacingLeft=4;spacingRight=4;overflow=hidden;rotatable=0;points=[[0,0.5],[1,0.5]];portConstraint=eastwest;" parent="GRutFDu-okp0kMUJ0biT-6" vertex="1"><mxGeometry y="26" width="160" height="26" as="geometry"/></mxCell><mxCell id="GRutFDu-okp0kMUJ0biT-8" value="" style="line;strokeWidth=1;fillColor=none;align=left;verticalAlign=middle;spacingTop=-1;spacingLeft=3;spacingRight=3;rotatable=0;labelPosition=right;points=[];portConstraint=eastwest;" parent="GRutFDu-okp0kMUJ0biT-6" vertex="1"><mxGeometry y="52" width="160" height="8" as="geometry"/></mxCell><mxCell id="GRutFDu-okp0kMUJ0biT-9" value="+ method(type): type" style="text;strokeColor=none;fillColor=none;align=left;verticalAlign=top;spacingLeft=4;spacingRight=4;overflow=hidden;rotatable=0;points=[[0,0.5],[1,0.5]];portConstraint=eastwest;" parent="GRutFDu-okp0kMUJ0biT-6" vertex="1"><mxGeometry y="60" width="160" height="26" as="geometry"/></mxCell><mxCell id="GRutFDu-okp0kMUJ0biT-11" value="" style="endArrow=block;dashed=1;endFill=0;endSize=12;html=1;rounded=0;edgeStyle=orthogonalEdgeStyle;" parent="1" source="GRutFDu-okp0kMUJ0biT-2" target="GRutFDu-okp0kMUJ0biT-1" edge="1"><mxGeometry width="160" relative="1" as="geometry"><mxPoint x="-180" y="200" as="sourcePoint"/><mxPoint x="-20" y="200" as="targetPoint"/></mxGeometry></mxCell><mxCell id="GRutFDu-okp0kMUJ0biT-12" value="" style="endArrow=block;dashed=1;endFill=0;endSize=12;html=1;rounded=0;edgeStyle=orthogonalEdgeStyle;" parent="1" source="GRutFDu-okp0kMUJ0biT-6" target="GRutFDu-okp0kMUJ0biT-1" edge="1"><mxGeometry width="160" relative="1" as="geometry"><mxPoint x="-130" y="300" as="sourcePoint"/><mxPoint x="-20" y="200" as="targetPoint"/></mxGeometry></mxCell><mxCell id="GRutFDu-okp0kMUJ0biT-14" value="Use" style="endArrow=open;endSize=12;dashed=1;html=1;rounded=0;edgeStyle=orthogonalEdgeStyle;" parent="1" source="B9xKihhxTxYCXN0yQaSQ-48" target="u4F1EandDgzio56QneHj-1" edge="1"><mxGeometry width="160" relative="1" as="geometry"><mxPoint x="120" y="-80" as="sourcePoint"/><mxPoint x="280" y="-80" as="targetPoint"/><Array as="points"><mxPoint x="360" y="-334"/><mxPoint x="360" y="20"/></Array></mxGeometry></mxCell><mxCell id="GRutFDu-okp0kMUJ0biT-15" value="app" style="endArrow=block;endFill=1;html=1;edgeStyle=orthogonalEdgeStyle;align=left;verticalAlign=top;rounded=0;" parent="1" source="B9xKihhxTxYCXN0yQaSQ-34" target="B9xKihhxTxYCXN0yQaSQ-48" edge="1"><mxGeometry x="-0.0883" relative="1" as="geometry"><mxPoint x="120" y="-80" as="sourcePoint"/><mxPoint x="280" y="-80" as="targetPoint"/><mxPoint y="1" as="offset"/></mxGeometry></mxCell><mxCell id="GRutFDu-okp0kMUJ0biT-16" value="1" style="edgeLabel;resizable=0;html=1;align=left;verticalAlign=bottom;" parent="GRutFDu-okp0kMUJ0biT-15" connectable="0" vertex="1"><mxGeometry x="-1" relative="1" as="geometry"><mxPoint x="-20" y="-5" as="offset"/></mxGeometry></mxCell><mxCell id="GRutFDu-okp0kMUJ0biT-17" value="Alert listener tiene como parametro a &#10;que se subscribe y el modo de alerta" style="text;align=center;fontStyle=1;verticalAlign=middle;spacingLeft=3;spacingRight=3;strokeColor=none;rotatable=0;points=[[0,0.5],[1,0.5]];portConstraint=eastwest;" parent="1" vertex="1"><mxGeometry x="-280" y="-900" width="80" height="26" as="geometry"/></mxCell><mxCell id="GRutFDu-okp0kMUJ0biT-18" value="app" style="endArrow=block;endFill=1;html=1;edgeStyle=orthogonalEdgeStyle;align=left;verticalAlign=top;rounded=0;" parent="1" source="B9xKihhxTxYCXN0yQaSQ-61" target="B9xKihhxTxYCXN0yQaSQ-9" edge="1"><mxGeometry x="-1" relative="1" as="geometry"><mxPoint x="200" y="-540" as="sourcePoint"/><mxPoint x="220" y="-400" as="targetPoint"/></mxGeometry></mxCell><mxCell id="GRutFDu-okp0kMUJ0biT-19" value="1" style="edgeLabel;resizable=0;html=1;align=left;verticalAlign=bottom;" parent="GRutFDu-okp0kMUJ0biT-18" connectable="0" vertex="1"><mxGeometry x="-1" relative="1" as="geometry"><mxPoint x="-17" y="17" as="offset"/></mxGeometry></mxCell><mxCell id="GRutFDu-okp0kMUJ0biT-20" value="parkingModeStrategy" style="endArrow=block;endFill=1;html=1;edgeStyle=orthogonalEdgeStyle;align=left;verticalAlign=top;rounded=0;" parent="1" source="B9xKihhxTxYCXN0yQaSQ-9" target="GRutFDu-okp0kMUJ0biT-1" edge="1"><mxGeometry x="-1" relative="1" as="geometry"><mxPoint x="60" y="-50" as="sourcePoint"/><mxPoint x="220" y="-50" as="targetPoint"/></mxGeometry></mxCell><mxCell id="GRutFDu-okp0kMUJ0biT-21" value="1" style="edgeLabel;resizable=0;html=1;align=left;verticalAlign=bottom;" parent="GRutFDu-okp0kMUJ0biT-20" connectable="0" vertex="1"><mxGeometry x="-1" relative="1" as="geometry"><mxPoint x="-15" y="20" as="offset"/></mxGeometry></mxCell><mxCell id="GRutFDu-okp0kMUJ0biT-26" value="Violation" style="swimlane;fontStyle=1;align=center;verticalAlign=top;childLayout=stackLayout;horizontal=1;startSize=26;horizontalStack=0;resizeParent=1;resizeParentMax=0;resizeLast=0;collapsible=1;marginBottom=0;" parent="1" vertex="1"><mxGeometry x="10" y="350" width="290" height="164" as="geometry"/></mxCell><mxCell id="GRutFDu-okp0kMUJ0biT-27" value="- patent: String" style="text;strokeColor=none;fillColor=none;align=left;verticalAlign=top;spacingLeft=4;spacingRight=4;overflow=hidden;rotatable=0;points=[[0,0.5],[1,0.5]];portConstraint=eastwest;" parent="GRutFDu-okp0kMUJ0biT-26" vertex="1"><mxGeometry y="26" width="290" height="26" as="geometry"/></mxCell><mxCell id="GRutFDu-okp0kMUJ0biT-32" value="- date: LocalDate" style="text;strokeColor=none;fillColor=none;align=left;verticalAlign=top;spacingLeft=4;spacingRight=4;overflow=hidden;rotatable=0;points=[[0,0.5],[1,0.5]];portConstraint=eastwest;" parent="GRutFDu-okp0kMUJ0biT-26" vertex="1"><mxGeometry y="52" width="290" height="26" as="geometry"/></mxCell><mxCell id="GRutFDu-okp0kMUJ0biT-33" value="- inspector: Inspector" style="text;strokeColor=none;fillColor=none;align=left;verticalAlign=top;spacingLeft=4;spacingRight=4;overflow=hidden;rotatable=0;points=[[0,0.5],[1,0.5]];portConstraint=eastwest;" parent="GRutFDu-okp0kMUJ0biT-26" vertex="1"><mxGeometry y="78" width="290" height="26" as="geometry"/></mxCell><mxCell id="GRutFDu-okp0kMUJ0biT-34" value="- area: ParkingArea" style="text;strokeColor=none;fillColor=none;align=left;verticalAlign=top;spacingLeft=4;spacingRight=4;overflow=hidden;rotatable=0;points=[[0,0.5],[1,0.5]];portConstraint=eastwest;" parent="GRutFDu-okp0kMUJ0biT-26" vertex="1"><mxGeometry y="104" width="290" height="26" as="geometry"/></mxCell><mxCell id="GRutFDu-okp0kMUJ0biT-28" value="" style="line;strokeWidth=1;fillColor=none;align=left;verticalAlign=middle;spacingTop=-1;spacingLeft=3;spacingRight=3;rotatable=0;labelPosition=right;points=[];portConstraint=eastwest;" parent="GRutFDu-okp0kMUJ0biT-26" vertex="1"><mxGeometry y="130" width="290" height="8" as="geometry"/></mxCell><mxCell id="GRutFDu-okp0kMUJ0biT-29" value="+ new(String, Localdate, Inspector, ParkingArea)" style="text;strokeColor=none;fillColor=none;align=left;verticalAlign=top;spacingLeft=4;spacingRight=4;overflow=hidden;rotatable=0;points=[[0,0.5],[1,0.5]];portConstraint=eastwest;fontStyle=5" parent="GRutFDu-okp0kMUJ0biT-26" vertex="1"><mxGeometry y="138" width="290" height="26" as="geometry"/></mxCell><mxCell id="GRutFDu-okp0kMUJ0biT-35" value="violations" style="endArrow=block;endFill=1;html=1;edgeStyle=orthogonalEdgeStyle;align=left;verticalAlign=top;rounded=0;exitX=0.655;exitY=0;exitDx=0;exitDy=0;exitPerimeter=0;" parent="1" source="GRutFDu-okp0kMUJ0biT-26" target="u4F1EandDgzio56QneHj-1" edge="1"><mxGeometry x="0.3093" y="-37" relative="1" as="geometry"><mxPoint x="230" y="390" as="sourcePoint"/><mxPoint x="380" y="160" as="targetPoint"/><mxPoint x="-37" y="37" as="offset"/></mxGeometry></mxCell><mxCell id="GRutFDu-okp0kMUJ0biT-36" value="1" style="edgeLabel;resizable=0;html=1;align=left;verticalAlign=bottom;" parent="GRutFDu-okp0kMUJ0biT-35" connectable="0" vertex="1"><mxGeometry x="-1" relative="1" as="geometry"/></mxCell><mxCell id="GRutFDu-okp0kMUJ0biT-37" value="*" style="text;align=center;fontStyle=1;verticalAlign=middle;spacingLeft=3;spacingRight=3;strokeColor=none;rotatable=0;points=[[0,0.5],[1,0.5]];portConstraint=eastwest;" parent="1" vertex="1"><mxGeometry x="118" y="225" width="80" height="26" as="geometry"/></mxCell><mxCell id="GRutFDu-okp0kMUJ0biT-39" value="Como implementamos las compras?&#10;Una clase aparte?" style="text;align=center;fontStyle=1;verticalAlign=middle;spacingLeft=3;spacingRight=3;strokeColor=none;rotatable=0;points=[[0,0.5],[1,0.5]];portConstraint=eastwest;" parent="1" vertex="1"><mxGeometry x="780" y="346" width="80" height="26" as="geometry"/></mxCell><mxCell id="cpH_HcVHQhqGvUeLm5oX-2" value="ShoppingRecord" style="swimlane;fontStyle=1;align=center;verticalAlign=top;childLayout=stackLayout;horizontal=1;startSize=26;horizontalStack=0;resizeParent=1;resizeParentMax=0;resizeLast=0;collapsible=1;marginBottom=0;" parent="1" vertex="1"><mxGeometry x="360" y="470" width="220" height="86" as="geometry"/></mxCell><mxCell id="cpH_HcVHQhqGvUeLm5oX-3" value="+ purchases: List&lt;Purchase&gt;" style="text;strokeColor=none;fillColor=none;align=left;verticalAlign=top;spacingLeft=4;spacingRight=4;overflow=hidden;rotatable=0;points=[[0,0.5],[1,0.5]];portConstraint=eastwest;" parent="cpH_HcVHQhqGvUeLm5oX-2" vertex="1"><mxGeometry y="26" width="220" height="26" as="geometry"/></mxCell><mxCell id="cpH_HcVHQhqGvUeLm5oX-4" value="" style="line;strokeWidth=1;fillColor=none;align=left;verticalAlign=middle;spacingTop=-1;spacingLeft=3;spacingRight=3;rotatable=0;labelPosition=right;points=[];portConstraint=eastwest;" parent="cpH_HcVHQhqGvUeLm5oX-2" vertex="1"><mxGeometry y="52" width="220" height="8" as="geometry"/></mxCell><mxCell id="cpH_HcVHQhqGvUeLm5oX-5" value="+ addPurchase(Purchase): Void" style="text;strokeColor=none;fillColor=none;align=left;verticalAlign=top;spacingLeft=4;spacingRight=4;overflow=hidden;rotatable=0;points=[[0,0.5],[1,0.5]];portConstraint=eastwest;" parent="cpH_HcVHQhqGvUeLm5oX-2" vertex="1"><mxGeometry y="60" width="220" height="26" as="geometry"/></mxCell><mxCell id="cpH_HcVHQhqGvUeLm5oX-6" value="Purchase" style="swimlane;fontStyle=1;align=center;verticalAlign=top;childLayout=stackLayout;horizontal=1;startSize=26;horizontalStack=0;resizeParent=1;resizeParentMax=0;resizeLast=0;collapsible=1;marginBottom=0;" parent="1" vertex="1"><mxGeometry x="647.5" y="502" width="170" height="138" as="geometry"/></mxCell><mxCell id="cpH_HcVHQhqGvUeLm5oX-7" value="+ id: BigInteger" style="text;strokeColor=none;fillColor=none;align=left;verticalAlign=top;spacingLeft=4;spacingRight=4;overflow=hidden;rotatable=0;points=[[0,0.5],[1,0.5]];portConstraint=eastwest;" parent="cpH_HcVHQhqGvUeLm5oX-6" vertex="1"><mxGeometry y="26" width="170" height="26" as="geometry"/></mxCell><mxCell id="cpH_HcVHQhqGvUeLm5oX-10" value="+ parkingArea: ParkingArea" style="text;strokeColor=none;fillColor=none;align=left;verticalAlign=top;spacingLeft=4;spacingRight=4;overflow=hidden;rotatable=0;points=[[0,0.5],[1,0.5]];portConstraint=eastwest;" parent="cpH_HcVHQhqGvUeLm5oX-6" vertex="1"><mxGeometry y="52" width="170" height="26" as="geometry"/></mxCell><mxCell id="cpH_HcVHQhqGvUeLm5oX-11" value="+ date: DateTime" style="text;strokeColor=none;fillColor=none;align=left;verticalAlign=top;spacingLeft=4;spacingRight=4;overflow=hidden;rotatable=0;points=[[0,0.5],[1,0.5]];portConstraint=eastwest;" parent="cpH_HcVHQhqGvUeLm5oX-6" vertex="1"><mxGeometry y="78" width="170" height="26" as="geometry"/></mxCell><mxCell id="cpH_HcVHQhqGvUeLm5oX-8" value="" style="line;strokeWidth=1;fillColor=none;align=left;verticalAlign=middle;spacingTop=-1;spacingLeft=3;spacingRight=3;rotatable=0;labelPosition=right;points=[];portConstraint=eastwest;" parent="cpH_HcVHQhqGvUeLm5oX-6" vertex="1"><mxGeometry y="104" width="170" height="8" as="geometry"/></mxCell><mxCell id="cpH_HcVHQhqGvUeLm5oX-9" value="+ method(type): type" style="text;strokeColor=none;fillColor=none;align=left;verticalAlign=top;spacingLeft=4;spacingRight=4;overflow=hidden;rotatable=0;points=[[0,0.5],[1,0.5]];portConstraint=eastwest;" parent="cpH_HcVHQhqGvUeLm5oX-6" vertex="1"><mxGeometry y="112" width="170" height="26" as="geometry"/></mxCell><mxCell id="cpH_HcVHQhqGvUeLm5oX-12" value="BalancePurchase" style="swimlane;fontStyle=1;align=center;verticalAlign=top;childLayout=stackLayout;horizontal=1;startSize=26;horizontalStack=0;resizeParent=1;resizeParentMax=0;resizeLast=0;collapsible=1;marginBottom=0;" parent="1" vertex="1"><mxGeometry x="905" y="601" width="160" height="78" as="geometry"/></mxCell><mxCell id="cpH_HcVHQhqGvUeLm5oX-13" value="+ amount: Double" style="text;strokeColor=none;fillColor=none;align=left;verticalAlign=top;spacingLeft=4;spacingRight=4;overflow=hidden;rotatable=0;points=[[0,0.5],[1,0.5]];portConstraint=eastwest;" parent="cpH_HcVHQhqGvUeLm5oX-12" vertex="1"><mxGeometry y="26" width="160" height="26" as="geometry"/></mxCell><mxCell id="cpH_HcVHQhqGvUeLm5oX-15" value="+ phoneNumber: String" style="text;strokeColor=none;fillColor=none;align=left;verticalAlign=top;spacingLeft=4;spacingRight=4;overflow=hidden;rotatable=0;points=[[0,0.5],[1,0.5]];portConstraint=eastwest;" parent="cpH_HcVHQhqGvUeLm5oX-12" vertex="1"><mxGeometry y="52" width="160" height="26" as="geometry"/></mxCell><mxCell id="cpH_HcVHQhqGvUeLm5oX-16" value="HoursPurchase" style="swimlane;fontStyle=1;align=center;verticalAlign=top;childLayout=stackLayout;horizontal=1;startSize=26;horizontalStack=0;resizeParent=1;resizeParentMax=0;resizeLast=0;collapsible=1;marginBottom=0;" parent="1" vertex="1"><mxGeometry x="905" y="463" width="160" height="78" as="geometry"/></mxCell><mxCell id="cpH_HcVHQhqGvUeLm5oX-17" value="+ quantity: Integer" style="text;strokeColor=none;fillColor=none;align=left;verticalAlign=top;spacingLeft=4;spacingRight=4;overflow=hidden;rotatable=0;points=[[0,0.5],[1,0.5]];portConstraint=eastwest;" parent="cpH_HcVHQhqGvUeLm5oX-16" vertex="1"><mxGeometry y="26" width="160" height="26" as="geometry"/></mxCell><mxCell id="cpH_HcVHQhqGvUeLm5oX-20" value="+ patent: String" style="text;strokeColor=none;fillColor=none;align=left;verticalAlign=top;spacingLeft=4;spacingRight=4;overflow=hidden;rotatable=0;points=[[0,0.5],[1,0.5]];portConstraint=eastwest;" parent="cpH_HcVHQhqGvUeLm5oX-16" vertex="1"><mxGeometry y="52" width="160" height="26" as="geometry"/></mxCell><mxCell id="cpH_HcVHQhqGvUeLm5oX-21" value="Extends" style="endArrow=block;endSize=16;endFill=0;html=1;rounded=0;edgeStyle=orthogonalEdgeStyle;" parent="1" source="cpH_HcVHQhqGvUeLm5oX-16" target="cpH_HcVHQhqGvUeLm5oX-6" edge="1"><mxGeometry width="160" relative="1" as="geometry"><mxPoint x="780" y="431.5" as="sourcePoint"/><mxPoint x="940" y="431.5" as="targetPoint"/></mxGeometry></mxCell><mxCell id="cpH_HcVHQhqGvUeLm5oX-22" value="Extends" style="endArrow=block;endSize=16;endFill=0;html=1;rounded=0;edgeStyle=orthogonalEdgeStyle;" parent="1" source="cpH_HcVHQhqGvUeLm5oX-12" target="cpH_HcVHQhqGvUeLm5oX-6" edge="1"><mxGeometry width="160" relative="1" as="geometry"><mxPoint x="970" y="580" as="sourcePoint"/><mxPoint x="1130" y="580" as="targetPoint"/></mxGeometry></mxCell><mxCell id="cpH_HcVHQhqGvUeLm5oX-23" value="purchases" style="endArrow=block;endFill=1;html=1;edgeStyle=orthogonalEdgeStyle;align=left;verticalAlign=top;rounded=0;" parent="1" source="cpH_HcVHQhqGvUeLm5oX-2" target="cpH_HcVHQhqGvUeLm5oX-6" edge="1"><mxGeometry x="-1" relative="1" as="geometry"><mxPoint x="620" y="370" as="sourcePoint"/><mxPoint x="780" y="370" as="targetPoint"/></mxGeometry></mxCell><mxCell id="cpH_HcVHQhqGvUeLm5oX-24" value="1" style="edgeLabel;resizable=0;html=1;align=left;verticalAlign=bottom;" parent="cpH_HcVHQhqGvUeLm5oX-23" connectable="0" vertex="1"><mxGeometry x="-1" relative="1" as="geometry"/></mxCell><mxCell id="cpH_HcVHQhqGvUeLm5oX-25" value="*" style="text;align=center;fontStyle=1;verticalAlign=middle;spacingLeft=3;spacingRight=3;strokeColor=none;rotatable=0;points=[[0,0.5],[1,0.5]];portConstraint=eastwest;" parent="1" vertex="1"><mxGeometry x="600" y="550" width="80" height="26" as="geometry"/></mxCell><mxCell id="cpH_HcVHQhqGvUeLm5oX-26" value="Use" style="endArrow=open;endSize=12;dashed=1;html=1;rounded=0;edgeStyle=orthogonalEdgeStyle;" parent="1" source="u4F1EandDgzio56QneHj-23" target="cpH_HcVHQhqGvUeLm5oX-2" edge="1"><mxGeometry width="160" relative="1" as="geometry"><mxPoint x="350" y="410" as="sourcePoint"/><mxPoint x="510" y="410" as="targetPoint"/></mxGeometry></mxCell><mxCell id="cpH_HcVHQhqGvUeLm5oX-27" value="&lt;p style=&quot;margin: 0px ; margin-top: 4px ; text-align: center&quot;&gt;&lt;i&gt;&amp;lt;&amp;lt;Interface&amp;gt;&amp;gt;&lt;/i&gt;&lt;br&gt;&lt;b&gt;MovementSensor&lt;/b&gt;&lt;/p&gt;&lt;hr size=&quot;1&quot;&gt;&lt;p style=&quot;margin: 0px ; margin-left: 4px&quot;&gt;&lt;/p&gt;&lt;p style=&quot;margin: 0px ; margin-left: 4px&quot;&gt;+ driving(): Void&lt;br&gt;+ walking(): Void&lt;/p&gt;" style="verticalAlign=top;align=left;overflow=fill;fontSize=12;fontFamily=Helvetica;html=1;" parent="1" vertex="1"><mxGeometry x="221" y="-595" width="190" height="90" as="geometry"/></mxCell><mxCell id="cpH_HcVHQhqGvUeLm5oX-28" value="" style="endArrow=block;dashed=1;endFill=0;endSize=12;html=1;rounded=0;edgeStyle=orthogonalEdgeStyle;" parent="1" source="B9xKihhxTxYCXN0yQaSQ-9" target="cpH_HcVHQhqGvUeLm5oX-27" edge="1"><mxGeometry width="160" relative="1" as="geometry"><mxPoint x="40" y="-390" as="sourcePoint"/><mxPoint x="200" y="-390" as="targetPoint"/><Array as="points"><mxPoint x="170" y="-422"/><mxPoint x="316" y="-422"/></Array></mxGeometry></mxCell><mxCell id="2" value="Extends" style="endArrow=block;endSize=16;endFill=0;html=1;entryX=1.009;entryY=0.154;entryDx=0;entryDy=0;exitX=0;exitY=0.5;exitDx=0;exitDy=0;entryPerimeter=0;" edge="1" parent="1" source="u4F1EandDgzio56QneHj-30" target="C_Dn3geYtqyEeUsSy_d3-1"><mxGeometry width="160" relative="1" as="geometry"><mxPoint x="1090" y="120" as="sourcePoint"/><mxPoint x="1200" y="120" as="targetPoint"/><Array as="points"><mxPoint x="1160" y="229"/><mxPoint x="1160" y="121"/></Array></mxGeometry></mxCell><mxCell id="5" value="" style="endArrow=none;html=1;rounded=0;" edge="1" parent="1"><mxGeometry relative="1" as="geometry"><mxPoint x="1120" y="120" as="sourcePoint"/><mxPoint x="1200" y="120" as="targetPoint"/></mxGeometry></mxCell><mxCell id="6" value="ParkingPerPurchase" style="swimlane;fontStyle=1;align=center;verticalAlign=top;childLayout=stackLayout;horizontal=1;startSize=26;horizontalStack=0;resizeParent=1;resizeParentMax=0;resizeLast=0;collapsible=1;marginBottom=0;" vertex="1" parent="1"><mxGeometry x="1200" y="86" width="230" height="86" as="geometry"/></mxCell><mxCell id="7" value="+ field: type" style="text;strokeColor=none;fillColor=none;align=left;verticalAlign=top;spacingLeft=4;spacingRight=4;overflow=hidden;rotatable=0;points=[[0,0.5],[1,0.5]];portConstraint=eastwest;" vertex="1" parent="6"><mxGeometry y="26" width="230" height="26" as="geometry"/></mxCell><mxCell id="8" value="" style="line;strokeWidth=1;fillColor=none;align=left;verticalAlign=middle;spacingTop=-1;spacingLeft=3;spacingRight=3;rotatable=0;labelPosition=right;points=[];portConstraint=eastwest;" vertex="1" parent="6"><mxGeometry y="52" width="230" height="8" as="geometry"/></mxCell><mxCell id="9" value="+ method(type): type" style="text;strokeColor=none;fillColor=none;align=left;verticalAlign=top;spacingLeft=4;spacingRight=4;overflow=hidden;rotatable=0;points=[[0,0.5],[1,0.5]];portConstraint=eastwest;" vertex="1" parent="6"><mxGeometry y="60" width="230" height="26" as="geometry"/></mxCell></root></mxGraphModel></diagram></mxfile>